PathFileType	4	(X/Y/Z)	Patient4_TMGait_0pt6_02_right_02.trc.trc
DataRate	CameraRate	NumFrames	NumMarkers	Units	OrigDataRate	OrigDataStartFrame	OrigNumFrames
84.337349397590	84.337349397590	4	33	mm	84.337349397590	36	       141
Frame#	Time	Sacral			L.Shoulder			Chest			R.Shoulder			Neck			R.ASIS			L.ASIS			R.Thigh.Superior			R.Thigh.Lateral			R.Thigh.Inferior			R.Patella			L.Thigh.Superior			L.Thigh.Lateral			L.Thigh.Inferior			L.Patella			L.Shank.Superior			L.Shank.Lateral			L.Shank.Inferior			R.Shank.Superior			R.Shank.Lateral			R.Shank.Inferior			R.Heel			R.Midfoot.Superior			R.Midfoot.Lateral			R.Toe			L.Heel			L.Midfoot.Lateral			L.Midfoot.Superior			L.Toe			L.Elbow			L.Wrist			R.Elbow			R.Wrist			
		X1	Y1	Z1	X2	Y2	Z2	X3	Y3	Z3	X4	Y4	Z4	X5	Y5	Z5	X6	Y6	Z6	X7	Y7	Z7	X8	Y8	Z8	X9	Y9	Z9	X10	Y10	Z10	X11	Y11	Z11	X12	Y12	Z12	X13	Y13	Z13	X14	Y14	Z14	X15	Y15	Z15	X16	Y16	Z16	X17	Y17	Z17	X18	Y18	Z18	X19	Y19	Z19	X20	Y20	Z20	X21	Y21	Z21	X22	Y22	Z22	X23	Y23	Z23	X24	Y24	Z24	X25	Y25	Z25	X26	Y26	Z26	X27	Y27	Z27	X28	Y28	Z28	X29	Y29	Z29	X30	Y30	Z30	X31	Y31	Z31	X32	Y32	Z32	X33	Y33	Z33	

36	2.175000000000	732.644206092101	1003.264810793773	509.838794348142	901.698450184171	1433.762727295742	333.155058134532	1007.666444796609	1364.173735071811	491.981261615325	923.034661289086	1432.723005485197	666.641825735289	884.835455199295	1491.953965972372	485.620899946282	958.196629131848	941.404801883930	629.264806946545	946.493690175902	955.797903585378	354.254456692042	1015.019041874133	748.489611416185	604.810501740024	942.111801534650	635.648045618575	664.897061142907	1025.665507752522	588.440397350791	587.396902880243	1033.352498587597	500.067016951348	595.514847502907	982.675797277053	735.021981814115	379.992780422971	893.604363979877	622.284350606776	314.986350004366	979.441301526330	536.550609904865	371.543246159455	970.004473869403	451.199002426199	369.109070218556	900.984968934107	394.219280110382	365.936724208932	759.762474890032	349.971968317267	321.726353051907	746.337572610924	223.602929538644	381.071037886925	1010.271293701053	410.318149284283	605.012530687947	943.083322406834	303.381557110155	665.268479718147	994.375930908168	210.193721502116	607.051485271274	872.443274072873	42.878590769650	571.339003409634	1039.702753997536	98.006844139132	617.893229265528	950.565637727808	36.799077246617	652.200932974026	1158.730844936948	46.622274615288	654.972191407317	557.019532969528	153.754472221139	424.284985210898	615.313294246033	108.722125307966	345.436856315740	718.547425875845	122.581931630854	365.319874271365	801.228902271840	31.688721170582	341.754487929253	909.838627064532	1084.744290169737	203.638291143638	1138.557383134414	961.990293599718	214.020358963168	855.267950693200	1086.798436024409	774.312540774343	902.245087298543	829.935129886133	772.924238817896	
37	2.186857142857	732.278551911541	1003.811932597368	513.071638036937	899.965933212693	1434.117788870861	334.623243020715	1007.216585293991	1364.767613100122	492.709881473742	923.998934743639	1433.480003737060	667.970791080346	884.409149259723	1492.474829560140	487.258232811265	958.390225083974	942.223698331549	630.779752792416	945.158538441819	955.932721550211	355.759071674352	1012.923698802958	747.745707980611	607.142686319958	938.652735254175	635.849352828507	667.023839334398	1021.525938510648	587.817458886601	589.315142289878	1028.158959193499	499.517480546262	597.205287212477	986.999679513416	738.103373543831	381.420965397121	902.390946360481	623.143501953490	315.563015105704	991.243912271854	539.467551421217	371.695163611483	983.274534257332	452.985057329019	368.708577930721	912.634153704124	396.014684579743	365.709443945364	769.695043603501	356.620096462612	321.940172025977	752.645119213018	230.455108899610	380.797855785916	1004.759452569420	409.960928265059	606.510149097662	937.124069267163	303.126205516352	666.298687106848	988.045926790189	209.903776845607	607.770468732049	865.532055232733	42.812887194035	571.548726727986	1032.891511035399	97.919011687049	618.291948014280	943.635897322779	36.720558007606	652.403171915821	1151.858724509537	46.348611049982	655.208885380565	560.972831333386	170.178815357925	424.128151619436	616.574006412733	121.410478804129	345.339670852045	720.758040323446	128.739926433277	365.209686585993	796.816262414074	30.867221781455	341.920071698245	903.938455729897	1083.531512289829	208.301229295488	1126.580455834868	948.772656766953	216.515107271459	864.406704064973	1086.119995123537	777.574574617900	924.224366528090	831.824290617811	774.164076034785	
38	2.198714285714	731.727113035756	1004.364819528947	516.147480787597	898.098406574676	1434.316270726515	335.893054930122	1006.697711225644	1365.248512544766	493.206764035104	924.985008463015	1434.122779410827	669.116835613550	883.980938425106	1492.886567761424	488.750627820869	958.390634337393	942.882384666459	632.194549999083	943.637981206997	955.887654412744	357.205479631859	1010.633375506596	746.959513684395	609.457458178332	934.993304850069	635.999721484157	669.136672811000	1017.204669687003	587.174252616959	591.253833231280	1022.776234303111	498.972059388740	598.945627970942	991.090169294223	741.385690242936	382.797015359317	910.888956831939	624.447584150211	316.022337087723	1002.537133882300	542.945232712859	371.874504038022	996.218185667837	455.447578461592	368.453261889091	924.255113097747	398.313896664345	365.569605799978	779.945140360457	363.236256092900	322.094561190274	759.636537372918	237.372401001265	380.642236141877	999.099690609665	409.595044288183	608.005036132808	931.042841156142	302.848170446323	667.339244485453	981.647363559852	209.616734359847	608.510529910068	858.590518238569	42.770394407479	571.747354822136	1026.044875094663	97.816662425829	618.690202764736	936.672631086687	36.640211065802	652.603954200392	1144.959031558922	45.992731986115	655.440836872426	566.181239518321	185.864188509727	424.045473656597	619.231771673466	133.844438265156	345.295948630830	724.053925842145	135.213890569806	365.212255055160	793.886634556420	30.430875843259	342.053476388209	898.128627726830	1082.199376505012	212.797148172777	1113.627147292994	935.256537567867	218.870490394333	873.706225576471	1085.630277729130	780.788710052120	946.645985905972	834.659649938274	775.204616076325	
39	2.210571428571	730.993389360967	1004.949051291826	519.028271981786	896.149981149664	1434.388582686766	336.961414306643	1006.121023717031	1365.628502491708	493.488858190994	925.982043345776	1434.689609764612	670.070388547347	883.565373098881	1493.223315248743	490.088112737249	958.196253539669	943.412144510731	633.545035236584	941.958448158776	955.745193267908	358.631538068889	1008.215140265084	746.192365087033	611.694356606261	931.215740664854	636.128996069340	671.176383880051	1012.773872512970	586.534797415362	593.159164579622	1017.281490967298	498.453037811308	600.670996274881	994.869311455934	744.869726372245	384.163047568705	918.963765744930	626.217090093979	316.395135132786	1013.184579308752	546.970559247893	372.078653007980	1008.690692000423	458.575352173593	368.290896263893	935.709223170355	401.100476557760	365.488171909840	790.349991520729	369.646543745540	322.195771355817	767.289147932946	244.107772315144	380.575450363173	993.358543288188	409.237242328325	609.446716245638	924.895575766833	302.581700423521	668.368628492901	975.201438026445	209.347191166346	609.245307273463	851.598093758323	42.757290083716	571.942466172945	1019.148468658228	97.710739313276	619.075138722979	929.661335725080	36.568361290628	652.807582130825	1138.013876858295	45.585634496467	655.666118808043	572.581861609901	200.120580467124	424.030070993676	623.380896849728	145.433578055330	345.296250675880	728.578228533876	141.714660079355	365.279316279677	792.917384535479	30.508752866157	342.128135049911	892.436914618402	1080.791566350127	217.109935748444	1099.651572073129	921.622215948018	221.097863633102	883.161165673229	1085.350392672547	783.874906173138	969.361643815123	838.514452006269	776.011483791852	
